<?xml version="1.0" encoding="utf-8"?>
<!-- Generator: Adobe Illustrator 25.2.3, SVG Export Plug-In . SVG Version: 6.00 Build 0)  -->
<svg version="1.1" id="svg-tampon" xmlns="http://www.w3.org/2000/svg" xmlns:xlink="http://www.w3.org/1999/xlink" x="0px" y="0px"
	 viewBox="0 0 178.3 174.3" enable-background="new 0 0 178.3 174.3" xml:space="preserve">
<g>
	<ellipse fill="none" stroke="#F4991A" cx="89.2" cy="87.1" rx="84.3" ry="83.1"/>
</g>
<polygon fill="none" stroke="#F4991A" points="68.9,112.8 77.8,112.9 88.9,91 89.4,91 100.1,112.9 109.5,112.9 89.1,72.8 "/>
<g>
	<path fill="none" stroke="#F4991A" d="M83.4,67c0,3.1-2.5,5.7-5.6,5.7c-3.1,0-5.6-2.5-5.6-5.7s2.5-5.7,5.6-5.7
		C80.9,61.3,83.4,63.9,83.4,67z"/>
	<path fill="none" stroke="#F4991A" d="M106.2,67c0,3.1-2.5,5.7-5.6,5.7c-3.1,0-5.6-2.5-5.6-5.7s2.5-5.7,5.6-5.7
		C103.7,61.3,106.2,63.9,106.2,67z"/>
</g>
</svg>
